<svg width="1600" height="900" viewBox="0 0 1600 900" fill="none" xmlns="http://www.w3.org/2000/svg">
  <defs>
    <linearGradient id="bg" x1="244" y1="84" x2="1362" y2="866" gradientUnits="userSpaceOnUse">
      <stop offset="0" stop-color="#E9F2FF"/>
      <stop offset="0.52" stop-color="#F5F8FD"/>
      <stop offset="1" stop-color="#EEF3FA"/>
    </linearGradient>
    <radialGradient id="glowA" cx="0" cy="0" r="1" gradientUnits="userSpaceOnUse" gradientTransform="translate(314 206) rotate(40.8) scale(412 288)">
      <stop stop-color="#5E8FE0" stop-opacity="0.2"/>
      <stop offset="1" stop-color="#5E8FE0" stop-opacity="0"/>
    </radialGradient>
    <radialGradient id="glowB" cx="0" cy="0" r="1" gradientUnits="userSpaceOnUse" gradientTransform="translate(1260 196) rotate(141.5) scale(384 272)">
      <stop stop-color="#D49A37" stop-opacity="0.16"/>
      <stop offset="1" stop-color="#D49A37" stop-opacity="0"/>
    </radialGradient>
    <filter id="soft" x="-20%" y="-20%" width="140%" height="140%">
      <feGaussianBlur stdDeviation="18"/>
    </filter>
  </defs>

  <rect width="1600" height="900" rx="40" fill="url(#bg)"/>
  <rect x="0.5" y="0.5" width="1599" height="899" rx="39.5" stroke="#D7E1EF"/>

  <ellipse cx="314" cy="206" rx="312" ry="196" fill="url(#glowA)"/>
  <ellipse cx="1260" cy="196" rx="284" ry="186" fill="url(#glowB)"/>
  <ellipse cx="1210" cy="686" rx="236" ry="148" fill="#5E8FE0" fill-opacity="0.08" filter="url(#soft)"/>

  <g opacity="0.5">
    <path d="M172 638C312 548 430 518 556 542C650 560 736 620 826 626C962 636 1044 554 1168 520C1266 494 1366 506 1474 568" stroke="#6B8CCB" stroke-opacity="0.35" stroke-width="2.5"/>
    <path d="M228 240C340 330 468 366 610 350C720 338 820 286 920 290C1058 294 1146 388 1282 406C1368 418 1424 398 1492 352" stroke="#C8912C" stroke-opacity="0.28" stroke-width="2.5"/>
    <path d="M182 324L362 238L530 318L662 250L842 324L994 230L1158 308L1368 204" stroke="#6B8CCB" stroke-opacity="0.26" stroke-width="2"/>
  </g>

  <g opacity="0.72">
    <path d="M298 470H432C447.464 470 460 482.536 460 498V568C460 583.464 447.464 596 432 596H298C282.536 596 270 583.464 270 568V498C270 482.536 282.536 470 298 470Z" fill="#F6F9FF" stroke="#BFD0E6"/>
    <path d="M338 506H394" stroke="#355E9D" stroke-width="6" stroke-linecap="round"/>
    <path d="M316 536H412" stroke="#8798B0" stroke-width="6" stroke-linecap="round"/>
    <path d="M316 560H382" stroke="#8798B0" stroke-width="6" stroke-linecap="round"/>

    <path d="M1146 468H1318C1332.91 468 1345 480.088 1345 495V575C1345 589.912 1332.91 602 1318 602H1146C1131.09 602 1119 589.912 1119 575V495C1119 480.088 1131.09 468 1146 468Z" fill="#F7FAFF" stroke="#BFD0E6"/>
    <circle cx="1172" cy="509" r="11" fill="#D49A37" fill-opacity="0.78"/>
    <path d="M1198 510H1296" stroke="#355E9D" stroke-width="6" stroke-linecap="round"/>
    <path d="M1148 544H1310" stroke="#8798B0" stroke-width="6" stroke-linecap="round"/>
    <path d="M1148 568H1268" stroke="#8798B0" stroke-width="6" stroke-linecap="round"/>
  </g>

  <g opacity="0.75">
    <path d="M544 206L642 150L740 206L740 318L642 374L544 318V206Z" fill="#F8FBFF" stroke="#B7CAE2" stroke-width="2"/>
    <path d="M642 150V374" stroke="#B7CAE2" stroke-width="2"/>
    <path d="M544 206L642 262L740 206" stroke="#B7CAE2" stroke-width="2"/>
    <path d="M544 318L642 262L740 318" stroke="#B7CAE2" stroke-width="2"/>

    <path d="M862 188L948 144L1034 188L1034 286L948 330L862 286V188Z" fill="#F8FBFF" stroke="#B7CAE2" stroke-width="2"/>
    <path d="M948 144V330" stroke="#B7CAE2" stroke-width="2"/>
    <path d="M862 188L948 238L1034 188" stroke="#B7CAE2" stroke-width="2"/>
    <path d="M862 286L948 238L1034 286" stroke="#B7CAE2" stroke-width="2"/>
  </g>

  <g opacity="0.88">
    <path d="M310 654L470 566L646 620L820 478L1000 536L1182 446L1334 500" stroke="#2F5EA8" stroke-opacity="0.38" stroke-width="3"/>
    <circle cx="310" cy="654" r="10" fill="#2F5EA8"/>
    <circle cx="470" cy="566" r="10" fill="#D49A37"/>
    <circle cx="646" cy="620" r="10" fill="#2F5EA8"/>
    <circle cx="820" cy="478" r="12" fill="#2F5EA8"/>
    <circle cx="1000" cy="536" r="10" fill="#D49A37"/>
    <circle cx="1182" cy="446" r="12" fill="#2F5EA8"/>
    <circle cx="1334" cy="500" r="10" fill="#D49A37"/>
  </g>

  <g opacity="0.34">
    <circle cx="224" cy="168" r="6" fill="#2F5EA8"/>
    <circle cx="1180" cy="132" r="8" fill="#D49A37"/>
    <circle cx="1384" cy="274" r="6" fill="#2F5EA8"/>
    <circle cx="190" cy="746" r="8" fill="#D49A37"/>
    <circle cx="1420" cy="714" r="7" fill="#2F5EA8"/>
  </g>
</svg>
